<svg xmlns="http://www.w3.org/2000/svg" width="262" height="115" viewBox="0 0 262 115">
    <g fill="none" fill-rule="evenodd">
        <path fill="#EBEBEB" d="M40.745 89.511c1.44-.945 3.409-2.238 6.821-1.525l-5.075 10.829-7.847-2.665c.629-1.4 1.081-2.404 1.298-2.875.356-.776.673-1.699.935-2.74l1.328-.421 1.64-.1a.464.464 0 0 0 .212-.065c.218-.129.446-.279.688-.438zM62.36 105.25l-10.135-3.531a1884.318 1884.318 0 0 0 6.04-13.026l8.608 6.453-4.513 10.104zm-4.9-16.927c-1.22 2.679-3.445 7.468-6.075 13.103l-7.858-2.738 5.652-12.059 8.281 1.694zm5.395 17.99l10.19 3.55L69.973 115H58.975l3.881-8.688zm18.143 6.321c-.124.248-.225.46-.3.632-.206.48-.58 1.07-1.077 1.735H71l2.895-4.842 7.105 2.475zM46.011 115l1.018-2.172L53.1 115h-7.088zm36.212-2.805l1.77 2.233-.409.572h-2.887c.371-.533.657-1.014.834-1.426.139-.32.376-.79.692-1.379zM46.561.545C46.563.544 46.72.23 48.296 0h9.493l.542 3.994-11.948.673c.003-.938.026-3.127.178-4.121zm22.742 2.832l-10.075.567L58.692 0h8.644a38.586 38.586 0 0 0 1.967 3.377zM37.212 14.37a.389.389 0 0 0 .096-.339c.787-.256 1.29.035 1.29.54 0 .757.813 2.175 1.93 2.459 1.118.283 3.252 1.985 4.37 2.741 1.118.756 2.541-1.512 1.83-2.08-.712-.567 1.118-2.268 1.118-2.268l-.61-.615 1.22-2.883h.71c.866.448 1.559 1.45 2.285 2.503.237.343.482.699.739 1.043.727.975 1.682 1.84 2.71 2.487-.892 1.974-1.776 3.94-2.575 5.732-2.213-.994-12.063-5.405-14.386-6.2-.951-.326-1.499-.725-1.628-1.186-.136-.485.167-1.136.9-1.934zm30.35 16.93c.02-.098.04-.19.056-.275l4.822 1.388-.243.366c-.534.803-.996 1.496-1.435 2.07-.18.236-.454.616-.808 1.118l-3.214-1.085c.105-.435.29-1.204.466-1.969a72.27 72.27 0 0 0 .356-1.613zm-1.782 3.756a.412.412 0 0 0 .284.483l3.389 1.145-.414.597c-2.379.906-7.578-.162-11.766-1.28l1.622-4.207 7.452.868c-.181.791-.39 1.668-.567 2.394zM46.21 21.893l-3.201 4.567-10.173-8.519c.843-1.054 1.953-2.065 2.764-2.775-.217.484-.271.932-.155 1.348.21.751.926 1.326 2.186 1.757 1.301.446 5.144 2.109 8.579 3.622zm3.797 9.455c.13-.453.914-2.291 2.024-4.808l7.146 2.056-2.765 7.17c-1.695-.47-3.166-.925-4.12-1.22l-.102-.032c.119-.53.467-1.56 1.408-1.848.235-.071.363-.307.286-.525a.456.456 0 0 0-.565-.266c-1.32.403-1.81 1.66-1.985 2.377-.232-.07-.421-.126-.56-.162-1.46-.38-1.361-.717-.884-2.338l.117-.404zm14.284-2.152l2.219-6.928c4.401 1.535 9.015 3.142 11.027 3.842-1.943 1.81-3.401 3.798-4.604 5.573l-8.642-2.487zm-16.617-4.781c-.233-.068-.484.053-.559.27l-1.393 4.047-2.04-1.708 3.345-4.77c2.228.984 4.166 1.853 4.956 2.208l-.469 1.057-3.84-1.104zm67.368 70.135c-.306.281-.571.524-.767.739-.035.04-.063.08-.098.12-1.306.755-2.529 1.073-3.122.957-1.327-.258-.528-5.224-.528-5.224l-1.796-9.893-2.154-3.933-1.56-4.986-4.913-12.927-10.49-9.045-21.855-8.483c2.088-3.079 3.704-5.425 4.282-6.181.468-.612.964-1.358 1.49-2.147 1.182-1.779 2.61-3.92 4.568-5.874-.871 2.668-1.986 7.491-3.727 9.377-2.337 2.531.915 2.856 3.15 3.801 2.237.946 3.863-.85 5.895-3.403l.064-.078a.468.468 0 0 0 .25-.087l2.2-1.642c.817-.104 1.517.313 2.161.862 1.22 1.04-2.134 3.12-3.557 4.632-1.423 1.512-.406 2.741.915 3.309 1.32.567 3.048.567 4.065-.379.842-.782 6.037-5.076 7.8-6.53l7.082 8.518.017.02 16.73 18.76c-2.207.325-6.914 1.033-8.751 1.42-.85.178-1.427.517-1.719 1.007-.419.706-.116 1.509.048 1.94.031.082.058.152.073.206.05.19.234.316.434.316a.488.488 0 0 0 .109-.012.425.425 0 0 0 .334-.36c.712 1.127 2.054 2.59 3.407 3.995l3.646 4.773a.455.455 0 0 0 .478.157c.964 2.623.66 6.854-.196 10.235a.465.465 0 0 0-.184.072.413.413 0 0 0-.176.276c-.188 1.253-.684 2.297-1.287 3.174-.005.005-.008.011-.012.017-.73 1.055-1.613 1.867-2.306 2.501zm-63.87-68.257c-1.11 2.521-1.895 4.367-2.03 4.84-.037.13-.074.252-.109.372l-2.581-2.162 1.381-4.01 3.34.96zm12.263 2.657l-11.062-3.183c.963-2.176 2.125-4.763 3.302-7.371.282.142.566.272.85.376.553.203 4.637 1.63 9.144 3.202l-2.234 6.976zm.171.921h.002l3.148.906c-.044.242-.123.62-.223 1.067l-7.328-.854.828-2.147 3.573 1.028zM56.62 36.69c3.641.993 7.257 1.764 9.98 1.765.625 0 1.201-.043 1.722-.13a753.9 753.9 0 0 0-2.1 3.081c-4.057-.939-22.311-5.212-26.1-6.914-4.269-1.917-5.996-6.212-6.911-8.103-.915-1.89-.915-3.498-1.524-5.388-.224-.692.085-1.523.64-2.364l13.316 11.152h.002l3.139 2.63c-.26 1.145-.118 1.99 1.747 2.475.276.071.805.235 1.476.443 1.46.452 2.98.905 4.496 1.32.012.005.02.015.034.02.027.008.055.009.083.013zm126.642 13.533l-1.384-1.459 5.68-3.887 1.17 1.278-5.466 4.068zm13.424-4.796l4.344 4.75-.711 4.364-3.137-.214v-7.03c0-.09-.031-.177-.088-.248l-.944-1.188.536-.434zM227.604 3.17c-.093-.956-.028-2.052.146-3.171h7.316l-7.28 4.097a5.476 5.476 0 0 1-.182-.926zm-32.131 43.238l.813 1.023v6.832l-3.38-.23c.14-1.395.29-2.78.424-3.94a.396.396 0 0 0-.104-.314l-.816-.89 3.063-2.481zm-2.65 8.454l3.463.237v7.518c-.251.01-.46.02-.609.033-1.795.151-2.764-.487-3.124-1.184a13.712 13.712 0 0 1-.02-1.993 5.336 5.336 0 0 0-.028-1.013c.078-1.052.191-2.309.318-3.598zm39.918 51.623c.195 3.166-.003 5.08-1.63 6.76-.165.172-.696.783-1.527 1.754h-10.25l-5.53-3.806a.47.47 0 0 0-.63.092l-2.86 3.714h-23.019c-1.5-1.32-2.856-2.636-3.757-3.726a340.273 340.273 0 0 1-3.674-4.564.394.394 0 0 0-.036-.571.473.473 0 0 0-.479-.077l-.404-.508c-1.977-2.49-4.022-5.063-5.255-6.51-2.368-2.78-4.21-1.856-5.693-1.113l-.243.122c-1.355.668-9.014 4.073-10.619 4.786l-.71-.717.813-.613 4.942-6.081 5.297-3.829-.42-6.413-4.78-4.758.347-.272 4.088 4.577a.468.468 0 0 0 .63.054.397.397 0 0 0 .06-.586l-4.27-4.78c.317-.296.69-.635 1.08-.974 1.084-.942 1.22-.571 2.845.437 1.625 1.009 1.22.505 1.22-1.008 0-1.512-.406-2.647.949-2.52 1.355.125 1.355 1.008 1.084 2.394-.271 1.386 1.22 1.89 2.898 2.395 1.679.504 1.167 0 1.032-1.698-.136-1.699.27-3.092.27-3.092s2.71-1.26 3.795-1.134c1.083.126-1.491 1.89-1.423 2.773l4.808-1.639v3.781h1.9l-1.9-10.209 2.984-.882-.271-2.007 8.401-2.783s-.03-.135-.072-.367c.686.44 1.676.708 3.026.593.206-.017.473-.032.783-.042a.468.468 0 0 0 .193.044.462.462 0 0 0 .212-.057c3.474-.082 11.186.178 12.397 1 .206.14.436.307.68.485 1.575 1.147 3.93 2.862 7.466 2.862.112 0 .224-.002.338-.005a77.194 77.194 0 0 0 1.99-.1c.145.982.506 4.017.914 7.553l-2.942.144c-.247.013-.436.208-.424.438l.126 2.289-4.605 1.071a.435.435 0 0 0-.317.276l-1.961 5.623a.392.392 0 0 0-.088.251l-1.537 4.408a.395.395 0 0 0-.021.129v3.025c0 .118.054.23.148.31a.469.469 0 0 0 .347.104l17.745-1.764c.24-.025.416-.22.4-.442l-.484-6.756 3.172-.275c.406 3.582.783 6.94 1.115 9.915l-21.848 2.275a.444.444 0 0 0-.368.264c-.08.191-.748 1.894.074 2.811.596.665 1.44.842 2.47.842.404 0 .84-.027 1.298-.063.614-.048 8.806-.868 18.845-1.878.154 1.394.29 2.65.408 3.738l-10.129 1.22c-.245.029-.418.238-.386.466.029.21.222.363.443.363.02 0 .039-.001.059-.003l10.102-1.217c.212 1.994.343 3.297.368 3.701zm-40.845-64.58l3.043 3.83-3.11 2.52-3.549-3.875 3.616-2.475zm-8.04 8.94l5.453-4.057 1.845 2.014-5.232 4.239c-.012-.017-.017-.036-.032-.051l-2.034-2.144zm36.97 25.204c.303 2.64.624 5.48.895 7.91l-2.997.26-.441-8.045 2.543-.125zM249.728 0l-1.357 1.153L247.59 0h2.138zm-39.87 92.412v-2.496l1.47-4.217 14.898-1.294.453 6.334-16.822 1.673zm19.887-84.224c-.654-1.11-1.276-2.225-1.684-3.272L236.797 0h8.695l-15.747 8.188zm-37.326 41.996c-.07.615-.247 2.19-.427 3.974l-9.518 4.79c-.006-.474-.166-1.002-.493-1.608l9.754-7.903.684.747zm-.694-9.196l-4.027 2.757-2.866-3.13 4.424-3.315 6.85 7.49-.49.398-3.265-4.112a.47.47 0 0 0-.626-.088zm-6.506 12.554c.013.014.03.02.045.033L181.53 56.6a16.496 16.496 0 0 0-1.05-1.36c-.737-.867-3.042-3.39-6.15-6.765 3.274-2.448 6.577-4.92 9.805-7.338l2.84 3.102-6.022 4.122a.399.399 0 0 0-.07.611l4.337 4.57zm74.495 29.095c.08-.011.155-.02.236-.032.572-.078 1.143-.158 1.708-.238v9.765l-1.944-9.495zM246.15 18.41l-7.404 4.197a238.144 238.144 0 0 1-4.152-6.315l10.541-5.87v2.543c0 .057.013.114.037.166l1.75 3.735-.772 1.544zm-15-7.82a69.76 69.76 0 0 0-.961-1.655l-.01-.018 16.481-8.57c.028-.014.047-.036.07-.055l.922 1.362-16.503 8.936zm12.848 24.975a.472.472 0 0 0 .22-.055l5.946-3.142 1.826 6.04.505 2.761-8.09 1.556-.132-1.269v-.002c-.171-1.785-.293-3.23-.341-4.133-.029-.533-.15-1.219-.335-2 .004.011.004.023.01.033.083.135.234.21.39.21zm-32.368 49.27l.802-2.301h5.304l.096 1.763-6.202.539zm22.557 25.662l3.648-.555.256 5.058h-3.477l-.586-2.794a.416.416 0 0 0-.241-.287c.178-.45.308-.922.4-1.422zm-51.358 1.285c.795.963 1.914 2.08 3.167 3.218H173.92l-1.358-.937 6.685-6.727a329.492 329.492 0 0 0 3.58 4.446zm78.783-93.82h.001l.046.04V48.78c-.925.216-1.86.434-2.734.636a.447.447 0 0 0-.523-.308c-.242.047-.397.268-.346.493l.003.016c-1.32.305-2.416.555-2.986.68l-2.204-12.051a.49.49 0 0 0-.01-.043l-5.884-19.468.845-1.688a.39.39 0 0 0 .005-.342l-1.794-3.828V9.924l2.797-1.558 5.522 8.346a.456.456 0 0 0 .381.198h5.652l1.23 1.052zm-2.5 32.27l.714-.165 1.833-.427v11.915l-2.547-11.323zm-100.387 55.32l12.504 8.628-.815.82h-19.314c-.09-.393.078-.782.465-1.36.795-1.185 5.92-6.747 7.16-8.087zm-7.92 7.648c-.482.719-.667 1.284-.607 1.8H134.26a86.779 86.779 0 0 1-.375-1.961l7.211-1.75 8.205-3.8 6.426-4.841 2.33 2.349c-1.24 1.34-6.411 6.947-7.253 8.203zM251.057 0h2.335l8.266 11.69v5.18l-.773-.662-10.397-11.931-.544-.802v-.001c-.354-.52-.717-1.056-1.088-1.604l2.2-1.87zm9.746 81.648l-1.801-9.854 2.656-.705v10.44l-.855.12zM190.23 56.575c-.74.375-2.682 1.062-4.45 1.657l6.115-3.077c-.05.52-.1 1.047-.145 1.563-.391-.356-.909-.453-1.52-.143zm59.852 5.96c.247-.019.43-.22.409-.45-.238-2.605-.512-5.683-.763-8.622l4.87-.786 2.622 14.338-10.01 1.562-.027-.317c-.046-.487-.164-1.57-.327-3.037v-.003l-.001-.002a2659.217 2659.217 0 0 0-.443-3.947c-.19-1.944-.457-4.433-.768-7.15l3.198-.516c.379 4.413.752 8.506.756 8.551.02.217.216.381.446.381a.52.52 0 0 0 .038-.001zm-.425-9.907c-.397-4.678-.722-8.834-.733-9.921l3.721-.716 1.804 9.864-4.792.773zM211.416 115l2.222-2.885 4.19 2.885h-6.413zm-39.577-1.436l-12.882-8.888-1.186-1.196c2.045-.908 9.075-4.037 10.403-4.691l.249-.124c1.428-.717 2.663-1.335 4.565.896 1.224 1.437 3.264 4.004 5.237 6.488l.48.606-6.866 6.91zm78.58-.687a.462.462 0 0 0-.4.188L248.656 115h-9.669l-.262-5.193 18.404-2.8v5.967c-2.131.341-4.42 1.455-5.344 1.942l-.99-1.811a.45.45 0 0 0-.375-.228zm4.802-61.763c.505-.1 1.4-.304 3.02-.68l3.417 15.191v4.597l-2.807.745-.673-3.679-2.773-15.163v-.001-.001l-.184-1.01zM253.55 115c1.4-.627 3.392-1.359 4.953-1.29.954.042 2.082.17 3.154.32v.97h-8.106zm4.463-15.302l3.287-.396.357 1.371v12.513c-1.053-.145-2.157-.267-3.112-.309a5.837 5.837 0 0 0-.522.004V99.743c0-.016-.008-.03-.01-.045zm3.644-89.525L254.464 0h7.194v.845l-1.497 1.077a.397.397 0 0 0-.091.571l1.588 2.07v5.61zm-6.195 57.96l1.906-.297 2.548 13.933-.81.108h-.004-.002c-.585.078-1.157.151-1.712.22l-1.926-13.963zm-9.174.2c.076.805.13 2.216.193 3.849.162 4.16.33 7.64.73 9.564l-7.43.645-1.433-16.08c3.629-.283 6.582-.518 7.66-.604.139 1.259.24 2.188.28 2.626zm3.178-60.59l.827-2.365 9.324 10.7h-4.637l-5.514-8.335zm-5.912 27.412c-.968-3.936-3.499-10.13-4.361-11.827l7.032-3.987 3.694 12.219c-.033.009-.067.013-.098.03l-6.047 3.196a.406.406 0 0 0-.22.37zm13.573 71.007l-18.447 2.807-.349-6.902 18.796-2.262v6.357zm-23.29-4.393c-.117-1.084-.253-2.328-.405-3.707 9.625-.97 20.626-2.081 28.225-2.849v3.206l-27.82 3.35zm.302-86.196l-.937-1.498L249.43 4.28l.201.297-1.029 2.943-14.463 8.053zm-1.863 98.65c.398-.413.724-.834.994-1.272l.43 2.049h-2.111c.356-.412.591-.679.687-.778zm-9.664-30.341c-.127-1.138-.502-4.478-.891-7.876l7.613-.375c.295 2.595.585 5.142.862 7.592l-7.584.659zm11.691 25.753c.091-.96.077-2.022.002-3.232-.025-.412-.16-1.754-.38-3.805l3.515-.423.35 6.93-3.487.53zm-13.55-41.726l-.041-.297c2.017-.129 4.732-.322 7.645-.538.296 2.585.592 5.177.882 7.727l-7.614.375a872.165 872.165 0 0 0-.626-5.325 153.85 153.85 0 0 0-.246-1.942zm24.794-14.618c-.12-1.032-.246-2.09-.376-3.16l-.057-.523v-.005l-.028-.256-.007-.088-.59-5.7 3.542-.68c.004.109.008.228.015.364.023.519.07 1.278.14 2.255.117 1.643.3 3.929.542 6.795l.04.478-3.221.52zM212.722 81.7l.622-1.786 4.194-.975.15 2.76h-4.966zm36.23-78.126l-16.198 9.777a64.906 64.906 0 0 1-1.193-2.021l16.568-8.972.824 1.216zm-.79 78.394c-.476-1.875-.664-6.73-.784-9.817-.04-1.032-.077-1.975-.117-2.739l7.318-1.142 1.921 13.934c-4.336.517-7.52.738-8.075.433-.083-.107-.16-.293-.23-.542 0-.006.003-.011.002-.018-.004-.04-.02-.074-.035-.11zm-44.25-54.009l-.811-1.047c5.531-4.154 9.481-7.125 10.606-7.971 1.587 1.121 3.14 2.014 4.59 2.785 3.361 1.787 5.229 4.393 5.709 7.966.159 1.183.878 7.285 1.84 15.575-2.063 1.498-7.803 2.667-9.193 3.744-1.626 1.26-2.575 2.396-1.626 4.034.949 1.638-2.03 4.663-4.2 4.407-2.167-.258-3.251.004-4.877 3.784-.313.726-.414 1.256-.375 1.64-2.836-.255-6.325-.312-8.393-.281v-7.435l3.417.234 2.88 1.063c.055.02.11.03.165.03.179 0 .347-.1.417-.264.091-.213-.021-.456-.251-.54l-2.614-.965.725-4.452 6.757-5.349a.4.4 0 0 0 .14-.43l-.45-1.472 1.55-1.392a.402.402 0 0 0 .136-.3v-4.366a.395.395 0 0 0-.058-.207l-1.89-3.072-.774-2.977a.398.398 0 0 0-.054-.12l-1.341-2.031a.448.448 0 0 0-.274-.187l-1.751-.404zm33.544 38.42l1.435 16.088-7.135.62c-.577-5.106-1.207-10.63-1.836-16.13 2.538-.19 5.154-.392 7.536-.577zM35.932 80.516c.336 3.358.13 6.451-.398 8.927l-10.26.627c-.306-3.079-.643-6.587-.794-8.598l11.452-.956zm-3.592-12.42c.857 1.961 1.603 3.833 2.131 5.452a33.17 33.17 0 0 1 1.366 6.14l-11.413.952-.014-.26c-.09-1.945-1.233-7.106-2.141-10.96l10.071-1.324zm-9.327 8.936c.277 1.456.469 2.67.502 3.384l.016.298-12.874 1.074-.222-4.255 12.578-.501zM8.205 64.364l.915 5.944-9.12 1.2V66.54l8.205-2.177zm8.677 4.923l-6.876.904-.932-6.057 5.543-1.47 2.265 6.623zm-7.679 1.85l.562 10.725L0 82.676V72.348l9.203-1.21zm16.57 25.297a.4.4 0 0 0 .117-.323c-.006-.054-.247-2.355-.533-5.212l9.977-.61a14.59 14.59 0 0 1-.834 2.412c-.362.789-1.37 3.034-2.763 6.142l-3.107 6.92a987.058 987.058 0 0 0-8.604-3.525l5.747-5.804zM5.26 57.526c-.015.76-.016 1.59-.004 2.49-1.724.053-3.58.105-5.255.153v-2.83c1.454.061 3.297.132 5.26.187zm-1.012-9.088c-.283.483-.564.95-.824 1.363-.681-.43-2.257-1.423-3.423-2.153v-1.154l.438-.56 3.809 2.504zm6.75 64.482c-.33.546-.82 1.33-1.335 2.08H0v-5.456l10.997 3.376zm-8.51-61.787c-.974 1.034-.364 4.408-.143 5.462-.853-.031-1.645-.063-2.344-.092v-7.85c1.105.693 2.388 1.502 2.957 1.861-.185.27-.348.488-.47.62zM1.58 37.776l2.822 1.675L0 45.078v-5.254l1.58-2.048zm12.146 22.28l.62 1.813L0 65.675v-4.673c1.82-.05 3.857-.11 5.708-.165h.01c2.516-.077 4.687-.148 5.5-.19a7.494 7.494 0 0 0 2.508-.591zm8.7 54.944l-2.135-.763L0 108.009v-6.974l.406-.06c.23-.034.393-.226.376-.442L.139 92.44l10.147-.62.459 8.764c.01.2.172.365.386.392.048.006 4.88.632 6.838 1.36 1.67.621 8.156 3.302 10.315 4.196a3695.328 3695.328 0 0 1-3.82 8.468h-2.038zm-4.124-13.437c-1.755-.653-5.487-1.2-6.68-1.363l-.442-8.435 13.282-.811c.241 2.406.451 4.424.517 5.053l-5.827 5.884c-.345-.136-.636-.249-.85-.328zm-8.06-10.576l-10.168.621L0 90.683v-7.17l9.808-.818.434 8.292zm.15-14.287l-.298-5.68 11.287-1.484a211.156 211.156 0 0 1 1.47 6.667l-12.46.497zm2.128-19.916c-1.969.018-4.197-.015-6.34-.069.109-2.954.442-4.299.772-4.885.18.354.534.722 1.205.95.427.315.955.548 1.578.644 1.777.275 2.515 2.288 2.785 3.36zm-6.364.766c1.686.042 3.427.07 5.063.07 1.774 0 3.421-.034 4.736-.119-1.087 1.144-2.847 2.211-4.788 2.313-.757.04-2.707.105-5.016.176-.012-.904-.01-1.714.005-2.44zm13.622-.725l.69-.483c1.861-.924 3.626-2.198 4.57-2.924 1.74 3.215 4.668 8.772 6.95 13.882l-9.913 1.303c-.516-2.17-.918-3.76-.929-3.805-.447-1.766-1.151-6.486-1.368-7.973zm-13.001-6.05c-.89.578-1.366 2.43-1.495 5.916-.692-.02-1.37-.041-2.02-.063v-.011c-.375-1.696-.654-4.348-.102-4.935.975-1.037 3.61-5.93 3.723-6.138a.403.403 0 0 0-.2-.559.464.464 0 0 0-.602.186c-.304.567-.835 1.531-1.406 2.528L.965 45.26l3.465-4.43-1.2 1.627 6.505 3.782-.184.221a.425.425 0 0 0-.118.066c-.536.453-1.618 1.633-2.226 2.876-.109.173-.188.36-.236.557-.099.276-.169.55-.194.816zm14.41 17.946l-3.406.448-2.382-6.967a.376.376 0 0 0-.01-.177.402.402 0 0 0-.107-.168l-.75-2.19c1.094-.603 1.997-1.408 2.605-2.214h1.744l.077-.054c.271 1.842.895 5.923 1.316 7.59.228.901.554 2.225.913 3.732zM10.701 82.62l12.887-1.075c.152 2.03.486 5.513.791 8.578l-13.243.81-.435-8.313zm199.25 16.164c-.33-.367-.18-1.217-.012-1.744l21.558-2.244c.1.904.197 1.77.287 2.593-10.037 1.01-18.227 1.83-18.827 1.877-1.666.129-2.495.09-3.006-.482zM249.727 115l.618-.877.48.877h-1.098zm-1.986-31.823c.149.173.363.422 2.028.422 1.5 0 4.183-.202 9.058-.844l2.374 11.603c.005.022.017.04.025.06-7.57.766-18.398 1.86-27.884 2.815-.41-3.709-.924-8.294-1.492-13.316l15.577-1.353c.095.27.198.48.314.613z"/>
        <path fill="#F2F2F2" d="M18.406 57.175c.164-.049.33-.104.495-.162l.057.386-.077.054h-1.744l.043-.059c.509-.059.927-.131 1.226-.22zm196.621-4.13c-.949-1.637 0-2.772 1.626-4.033 1.39-1.077 7.13-2.246 9.193-3.744.456 3.935.968 8.362 1.5 12.993l-10.474 1.15c-.246.026-.422.233-.393.462.027.211.22.367.445.367.017 0 .035 0 .052-.002l10.466-1.149.821 7.156c-4.752.352-8.971.645-10.465.69a9.393 9.393 0 0 1-3.537-.57l-2.067-1.005a23.374 23.374 0 0 1-1.618-1.105c-.25-.182-.487-.355-.705-.503-.615-.417-2.292-.695-4.296-.875-.039-.384.062-.914.375-1.64 1.626-3.78 2.71-4.042 4.878-3.784 2.168.256 5.148-2.769 4.2-4.407zm-23.472 8.288c.14.553.518 1.133 1.177 1.555.041.232.072.367.072.367l-8.401 2.783.27 2.007-2.983.882 1.9 10.21h-1.9v-3.782l-4.808 1.639c-.068-.883 2.506-2.647 1.423-2.773-1.084-.126-3.795 1.134-3.795 1.134s-.406 1.393-.27 3.092c.135 1.698.647 2.202-1.032 1.698-1.678-.504-3.17-1.009-2.898-2.395.27-1.386.27-2.27-1.084-2.395-1.355-.126-.949 1.009-.949 2.521 0 1.513.405 2.017-1.22 1.008-1.625-1.008-1.76-1.38-2.845-.437-.39.339-.763.678-1.08.973l-6.073-6.8c3.168-2.362 5.771-4.164 6.959-4.68.898-.39 2.008-.884 3.183-1.407 4.056-1.806 9.612-4.28 11.868-4.852 1.285-.326 2.53-.752 3.094-1.629l3.616-1.82c1.768-.595 3.71-1.282 4.45-1.657.611-.31 1.129-.213 1.52.143-.19 2.17-.315 4.137-.194 4.615zM20.468 56.342l-.69.483-.022-.15c.238-.105.475-.216.712-.333zM112.385 7.64c-1.395.617-3.419 1.626-5.773 2.835L100.832 0h37.291c.1.992.196 1.932.284 2.781-.171.271-.333.558-.498.864-1.026 1.911-2.088 3.887-7.202 2.202-6.814-2.246-12.062-.979-18.322 1.794zM56.852 17.997a7.263 7.263 0 0 1-.829-.372 3130.454 3130.454 0 0 1 5.918-12.999l7.9-.444a47.302 47.302 0 0 0 2.693 3.555l7.537 9.06c-.722.369-1.252.616-1.495.685-1.937.555-4.487 3.547-5.38 6.227-6.24-2.175-15.509-5.406-16.344-5.712zM197.986 6.372L188.158.71l.498-.71h6.079c5.367 5.214 10.656 10.493 12.342 12.639a31.227 31.227 0 0 0 5.377 5.37c-2.436 1.833-12.078 9.083-23.612 17.73l-18.702-14.66 12.168-12.01 5.362-7.66 9.844 5.671a.471.471 0 0 0 .617-.135.4.4 0 0 0-.145-.573zm-58.167 3.952l-22.921 17.12-9.542-15.685c2.335-1.2 4.336-2.196 5.703-2.802 6.05-2.68 10.792-3.823 17.125-1.736 5.367 1.77 7.385-.06 8.533-1.881.276 1.91.63 3.527 1.102 4.984zm4.506 5.248c-2.614-3.473-3.707-6.677-4.333-12.698L139.697 0h27.458l.54.624-21.4 17.276c-.963-1.096-1.649-1.901-1.97-2.328zM9.09 53.08c1.019.326 1.789.57 2.351.596l1.141 3.106h-.062c-.27-1.071-1.008-3.084-2.785-3.359a3.564 3.564 0 0 1-1.578-.643l.08.03c.299.092.583.183.853.27zM181.273 7.875L168.618.362 168.305 0h18.48l-5.512 7.875zm-40.32 65.275c1.549-1.07 4.895-3.51 9.347-6.794l5.063 5.669c-2.873 2.158-6.1 4.686-9.127 7.101l-5.282-5.976zm-9.73 21.569a21.49 21.49 0 0 1 .288-3.6l1.077.154a10.657 10.657 0 0 0-1.365 3.446zm4.02-16.403c.858-1.497 2.222-2.795 4.987-4.673l5.327 6.027a611.242 611.242 0 0 0-5.43 4.4l-4.883-5.754zm-1.572 4.482c.397-1.481.704-2.628 1.148-3.637l4.635 5.46a229.584 229.584 0 0 0-3.946 3.3c-1.005.874-1.79 1.734-2.405 2.583l-1.446-.208c.246-1.266.6-2.622 1.07-4.155.39-1.28.684-2.376.944-3.343zm62.091-39.669l-3.235-3.538-2.49-2.875c4.528-3.395 8.757-6.57 12.366-9.28l.878 1.135c.062.08.153.137.256.16l1.732.401 1.209 1.83.709 2.728-11.425 9.44zm-118.24-2.278c-2.236-.945-5.488-1.27-3.15-3.801 1.74-1.886 2.855-6.71 3.726-9.377 1.585-1.583 3.516-3.045 5.954-4.091.378-.162.788-.346 1.212-.54l7.085 8.521-2.724.329a.465.465 0 0 0-.222.089l-6.066 4.528-1.627-.335c-.242-.05-.48.092-.534.317-.053.224.1.447.341.496l1.836.378c.033.006.065.01.097.01.01 0 .02-.004.03-.005l-.064.078c-2.032 2.553-3.658 4.349-5.894 3.403zm38.668-12.877L100.864 39.42 86.693 22.378c3.841-1.826 8.976-4.516 13.979-7.138 2.058-1.078 4.066-2.13 5.9-3.077l9.618 15.81zM9.735 46.24L3.23 42.458l1.2-1.626.728-.932 18.478 10.968c.158.283.505.906.986 1.786-1.162.901-4.047 3.007-6.486 3.726-.304.09-.745.161-1.294.219-.006.001-.013 0-.02.002-.876.09-2.023.143-3.327.169a.384.384 0 0 0-.018-.127l-1.19-3.241c.41-.447.123-1.186-.25-1.921a.464.464 0 0 0-.597-.198c-.224.098-.32.347-.213.555.283.557.351.831.364.958-.039.012-.07.035-.102.055-.4-.013-1.332-.31-2.108-.558-.272-.087-.56-.18-.86-.273-.64-.198-.782-.522-.833-.75-.264-1.16 1.412-3.335 2.348-4.128a.396.396 0 0 0 .03-.588.467.467 0 0 0-.515-.093l.184-.221zm187.337-1.679l-.73-.797 11.228-9.277 1.589 2.582v4.078l-1.607 1.443a.398.398 0 0 0-.12.414l.446 1.454-6.324 5.005-4.482-4.902zm-30.527 14.946c-.298-1.205-.699-3.484-.882-4.561 2.425-1.808 4.922-3.672 7.443-5.557 3.111 3.378 5.416 5.9 6.142 6.755 1.577 1.858 1.754 2.684 1.624 3.05-.181.51-1.35.861-2.215 1.08-2.055.522-6.324 2.367-10.236 4.101-.528-1.21-1.583-3.69-1.876-4.868zm-1.687-3.961c.205 1.182.545 3.062.815 4.148.313 1.265 1.407 3.83 1.937 5.04l-1.086.484a398.772 398.772 0 0 1-3.169 1.401c-1.298.563-4.024 2.446-7.294 4.883L151 65.838c3.966-2.93 8.737-6.475 13.857-10.292zM43.17 99.45l7.858 2.739a8915.318 8915.318 0 0 1-4.478 9.573l-7.836-2.804 4.456-9.508zm54.604 13.689l2.972-6.41 6.003 2.962-1.505 4.803-7.47-1.355zm-4.504-35.4l6.046 3.646c-1.391 2.56-3.624 6.356-6.034 10.393l-6.08-3.886 6.068-10.152zm-18.936 31.681l5.151-8.619 6.635 2.924c-2.008 3.367-3.716 6.275-4.692 8.089l-3.759-1.232-3.335-1.162zm-60.25-74.486l-2.677 6.945L0 35.109V0h5.543c1.815 1.747 3.378 5.064 1.524 11.214-2.986 9.907-.625 17.886 7.017 23.72zm78.02 77.176l4.918-7.22 2.93 1.447-3.078 6.638-4.77-.865zM59.001 72.309c.103 2.252.29 7.615-.063 11.17l-7.84-1.38V70.966l7.903 1.343zm8.385 21.688l-2.898-1.71-5.861-4.393a49.91 49.91 0 0 0 .627-1.427c.198-.492.35-1.185.464-2.003l11.057 1.947-3.389 7.586zm18.125-4.993L79.11 99.715l-11.118-4.9 3.683-8.246 13.837 2.435zM47.445 70.318a.466.466 0 0 0 .15.053l2.609.443V81.94L37.41 79.69a34.284 34.284 0 0 0-1.439-6.565c-.703-2.158-1.766-4.717-2.959-7.334l1.914-2.484 12.519 7.012zm26.04 38.808L63.2 105.542l4.447-9.956 11.027 4.859-5.189 8.68zm68.334-71.77l-14.792-16.408 13.087-9.776c.704 1.887 1.641 3.528 2.927 5.236 1.007 1.337 5.394 6.192 10.77 12.057l-11.992 8.89zM81.452 16.075l-7.678-9.23C71.758 4.422 70.246 2.143 69.088 0h30.738l6.002 10.88c-1.844.952-3.86 2.008-5.926 3.09l-.683.358-3.912-5.623a.468.468 0 0 0-.614-.127c-2.921 1.707-9.4 5.44-13.241 7.497zm-23.39 55.227L51.1 70.119v-2.95l6.963 4.133zM34.44 62.509L32.6 64.895c-2.231-4.802-4.812-9.662-6.343-12.472l23.947 14.215v3.33l-2.367-.403-12.803-7.171a.47.47 0 0 0-.595.115zm47.564-45.771c4.209-2.25 11.083-6.24 12.792-7.235l3.642 5.235c-4.631 2.424-9.255 4.83-12.72 6.466a36449.03 36449.03 0 0 0-3.714-4.466zm4.553 86.258l-6.635-2.923 6.515-10.9 6.082 3.886c-.964 1.61-1.945 3.243-2.901 4.835-1.05 1.748-2.086 3.471-3.061 5.102zm-7.717-84.717c.298-.086.934-.383 1.784-.817l3.662 4.403c-.308.14-.608.272-.89.393a20.03 20.03 0 0 0-5.14 3.213l-4.217-1.469c.835-2.577 3.298-5.293 4.801-5.723zM45.487 4.717l-1.265.071L37.32 0h7.767l.657.209a.788.788 0 0 0-.068.219c-.166 1.078-.187 3.367-.188 4.29zm8.119 49.108l3.041 1.834a5772.978 5772.978 0 0 0-6.244 9.367L12.182 42.339l2.852-7.4a.4.4 0 0 0-.141-.466C7.36 28.85 5.018 21.1 7.93 11.439 9.765 5.352 8.284 1.859 6.722 0h29.1l7.996 5.547a.469.469 0 0 0 .268.083h.027l16.829-.947c-.744 1.623-3.205 7-5.69 12.496a9.356 9.356 0 0 1-2.326-2.183c-.248-.332-.489-.68-.721-1.018-.963-1.396-1.873-2.716-3.336-3.056-.24-.055-.483.08-.543.303-.06.223.086.45.326.505.179.042.35.11.514.195h-.71l-1.22 2.883.61.615s-1.83 1.701-1.118 2.269c.711.567-.712 2.835-1.83 2.08-1.118-.757-3.252-2.459-4.37-2.742-1.117-.284-1.93-1.702-1.93-2.458 0-.506-.503-.797-1.29-.54a.403.403 0 0 0-.145-.25.471.471 0 0 0-.632.046c-.439.478-.745.921-.932 1.338-.81.71-1.92 1.721-2.764 2.775l-.442-.37a.472.472 0 0 0-.633.03.397.397 0 0 0 .033.59l.534.445c-.555.841-.864 1.672-.64 2.364.61 1.89.61 3.498 1.524 5.388.915 1.89 2.642 6.186 6.911 8.103 3.789 1.702 22.043 5.975 26.1 6.914-2.69 3.968-6.1 9.054-9.102 13.546l-3.373-2.034a.47.47 0 0 0-.599.095l-2.033 2.459a.398.398 0 0 0 .082.584.47.47 0 0 0 .628-.076l1.78-2.154zM80.73 70.18l11.786 7.106L86.46 87.42l-12.21-7.801 6.48-9.438zm3.862 17.814l-12.613-2.22 1.621-4.803 10.992 7.023zM66.969 61.883l13.01 7.844-6.467 9.419-8.87-5.669-4.419-2.622 6.746-8.972zm-9.005-5.43l8.254 4.976-6.75 8.977-7.743-4.595c.93-1.399 3.36-5.05 6.239-9.358zm1.856 27.181c.37-3.598.192-8.887.084-11.239l3.883 2.304 9.04 5.778-1.734 5.142-11.273-1.985zm51.563 22.29l-.57-.518-.013.012-10.634-9.24-6.142-3.925c2.555-4.28 4.853-8.192 6.246-10.788.768-1.431 1.262-2.464 1.369-2.932.27-1.179 2.472-11.688-3.082-17.57-4.89-5.178-7.634-6.316-7.748-6.362a.466.466 0 0 0-.555.158l-9.793 14.266-5.16-3.112 2.428-3.55a.4.4 0 0 0-.137-.575.468.468 0 0 0-.618.128l-2.425 3.544-7.066-4.26 8.204-10.91a.398.398 0 0 0-.11-.581.47.47 0 0 0-.624.103L66.73 60.746l-8.294-5.001c3.085-4.617 6.604-9.864 9.321-13.87l21.856 8.483 10.49 9.045 4.912 12.927 1.56 4.986 2.154 3.933 1.796 9.893s-.799 4.966.528 5.224c.593.116 1.816-.202 3.122-.956-.915 1.07-1.142 2.24-.624 3.308.413.852 6.012 4.73 8.329 6.31l-.373 2.245-1.572 5.503-.601.384-7.822-7.117-.003-.009-.127-.11zm22.52-13.85l4.305 6.062-5.582 4.36a72.431 72.431 0 0 1-.135-4.224c0-2.048.145-4.08 1.413-6.197zm23.473-.346l-3.908-4.421 8.808-6.88 4.781 4.759.42 6.413-5.297 3.829-4.942 6.08-.814.614-6.777-6.835-2.55-3.005 5.685-4.44 3.902 4.415c.089.1.217.152.346.152.1 0 .202-.03.285-.094a.397.397 0 0 0 .061-.587zm-23.491 21.31a90.784 90.784 0 0 1-1.191-9.508l13.716-10.712 2.545 2.998.022.024 6.75 6.808-6.426 4.84-8.205 3.8-7.211 1.75zM97.884 61.513c5.266 5.577 3.139 15.71 2.88 16.848-.085.368-.46 1.166-1.046 2.276l-6.012-3.625 4.093-6.848a.401.401 0 0 0-.174-.566.466.466 0 0 0-.61.161l-4.063 6.799-5.24-3.16a.411.411 0 0 0 .1-.113l1.316-2.268a.402.402 0 0 0-.18-.565.465.465 0 0 0-.608.169l-1.317 2.269c-.014.025-.016.051-.025.077l-5.786-3.488 9.575-13.947c.854.458 3.323 1.985 7.097 5.981zm70.471-60.318l12.35 7.332-22.63 22.335c-4.49-4.878-8.626-9.403-11.211-12.318l21.491-17.349zm-55.677 107.949l5.34 4.858-1.566.999h-1.572l-2.202-5.857zm-22.812-76.44l3.118-.376 4.33 5.207c-1.763 1.455-6.958 5.749-7.8 6.531-1.017.946-2.744.946-4.065.379-1.321-.568-2.338-1.797-.915-3.309 1.423-1.513 4.777-3.592 3.557-4.632-.644-.55-1.344-.966-2.161-.862l3.936-2.938zm41.244 71.394l.081.338A91.936 91.936 0 0 0 132.665 115h-11.308l-1.37-1.246.593-.378a.418.418 0 0 0 .18-.237l1.62-5.673a.381.381 0 0 0 .01-.044l.338-2.035 8.382-1.29zm38.415-82.41l18.606 14.585c-4.764 3.57-9.827 7.362-14.823 11.096-1.737-1.885-3.678-3.985-5.71-6.184-2.739-2.965-5.669-6.136-8.498-9.209l10.425-10.289zm75.43 34.642l-5.207.571-.654-6.468c1.802-.134 4.244-.308 5.172-.357.225 2.074.46 4.203.69 6.254zm-234.17 58.575c.433-.655.818-1.283 1.08-1.718l5.91 1.814h-7.028l.037-.096zM0 36.84l.823.488L0 38.395v-1.556zM219.074 20.46c-3.32-1.764-7.19-4.176-10.732-8.683C206.71 9.7 201.936 4.903 196.91 0h29.878a5.532 5.532 0 0 0-.038.824c-.09.869-.108 1.695-.036 2.422.162 1.655 1.17 3.513 2.25 5.348l-8.192 4.26a.417.417 0 0 0-.226.313l-.992 7.563c-.158-.09-.314-.181-.479-.269zM58.416 86.175c-.089.222-.295.69-.6 1.367l-8.272-1.692 1.375-2.935 7.923 1.395c-.106.768-.244 1.414-.426 1.865zm186.632-29.017l.489 4.347.379 3.373c-.848.067-2.813.224-5.34.423.006-.036.016-.072.012-.11l-.756-7.461 5.216-.572zm-6.86-6.784l.671 6.624-9.956 1.092a12782.2 12782.2 0 0 0-1.716-14.848l16.233-1.295c.204 2.108.469 4.638.756 7.298a240.616 240.616 0 0 0-2.574.169c-1.31.093-2.62.19-2.953.215l-1.955-.513c-.238-.063-.485.066-.553.287-.067.222.072.452.31.515l1.737.456zm1.508 14.895c.004.035.019.067.03.098-2.937.231-6.491.506-9.9.762-.278-2.426-.555-4.842-.828-7.21l9.945-1.092.753 7.442zm3.34-27.907c.045.84.153 2.147.305 3.754l-16.25 1.298-.628-5.373 7.85-.722c.246-.023.426-.227.402-.456-.025-.229-.244-.396-.49-.373l-7.86.723c-.42-3.578-.71-6-.804-6.701-.064-.478-.152-.94-.26-1.389l14.537-1.1c1.362 3.379 3.084 8.184 3.198 10.339zM238.23 23.4c.16.228.658 1.317 1.276 2.812l-14.432 1.092c-.792-2.508-2.341-4.51-4.686-6.063l1.018-7.764 7.99-4.154.008.014c.421.707.819 1.375 1.164 2.018 1.38 2.567 5.925 9.56 7.662 12.045zM117.92 92.745l5.805 1.17-1.69 10.184c-3.681-2.522-7.385-5.227-7.668-5.727-.386-.795-.176-1.7.591-2.545.17-.186.42-.416.712-.683.64-.587 1.497-1.375 2.25-2.4zm-79.564 16.978l7.835 2.805L45.033 115h-9.15l2.473-5.277zm103.235-53.119l-9.537 7.562-9.435-11.511 9.293-6.89 9.68 10.84zm9.571-7.588l-8.89 7.048-9.66-10.818 9.082-6.732 9.468 10.502zm-34.5-20.326l14.677 16.435-15.493 11.486-10.218-11.46-4.216-5.07 15.25-11.39zm24.456 9.185l-9.078 6.73-14.68-16.437 8.968-6.698 14.79 16.405zM34.644 96.15l7.847 2.665L34.906 115h-8.74c2.524-5.579 5.091-11.302 7.018-15.596l1.46-3.254zm17.225 6.333l10.148 3.536L58.005 115h-2.412l-8.206-2.937a8754.65 8754.65 0 0 0 4.482-9.58zm90.976-45.778l8.893-7.05 7.44 8.253A3327.238 3327.238 0 0 1 150 64.716l-7.155-8.011zm17.033.683l-7.459-8.274 11.797-9.353 2.193 2.373c2.02 2.186 3.949 4.274 5.677 6.148a7733.62 7733.62 0 0 1-12.208 9.106zm-51.594 52.617l2.234-2.191L113.22 115h-5.19l-1.24-.225 1.495-4.77zm19.917-49.166l5.48 6.686-4.826 3.674-5.605-6.286 4.951-4.074zm-6.283-7.664l5.739 7-4.98 4.097-6.259-7.02 5.5-4.077zm10.68 11.654l9.566-7.584 7.135 7.99c-4.845 3.575-8.369 6.14-9.663 7.006-2.91 1.95-4.483 3.387-5.48 4.902l-4.729-5.302 5.156-3.927a.396.396 0 0 0 .073-.574l-2.058-2.51zM96.912 115l.5-1.077L103.35 115h-6.438zm-5.323-2.134l4.922.893-.575 1.241h-5.8l1.453-2.134zm32.77-22.773l-.498 2.997-5.44-1.097a8.224 8.224 0 0 0 1.038-2.603l4.9.703zm-27.284 13.882a.467.467 0 0 0-.588.145L89.075 115h-5.49l.407-.572-1.769-2.233c1.484-2.758 4.75-8.195 8.176-13.895.958-1.595 1.921-3.198 2.86-4.767l5.97 3.816 10.493 9.127-2.536 2.488-10.111-4.989zm27.42-14.706l-5.337-.765a.475.475 0 0 0-.152.006c.855-3.381 1.16-7.612.196-10.235a.455.455 0 0 0 .17-.076l1.447-1.093 3.147 3.194c.088.09.209.135.33.135a.466.466 0 0 0 .303-.11.396.396 0 0 0 .027-.588l-3.11-3.158 2.524-1.909a.464.464 0 0 0 .037-.03l2.028-1.915.897 1.436-2.506 15.108zm27.349-40.793l-9.45-10.482 12-8.895c2.94 3.206 6.146 6.68 9.239 10.03l-11.79 9.347zm-25.087 23.633l.474-.447 6.154 6.9c-.492 1.11-.822 2.341-1.236 3.884-.256.955-.546 2.038-.93 3.296-.487 1.59-.854 3.006-1.108 4.333l-4.73-.679 2.53-15.253a.39.39 0 0 0-.055-.273l-1.1-1.76zm-10.838.899c.264-.899 1.234-4.538.232-6.566 2.157-.346 4.544-.7 5.657-.862l4.848 5.437-3.2 3.021-4.279 3.235-3.258-4.265zm8.82 20.259l.505-3.047 4.722.677a23.185 23.185 0 0 0-.303 3.363l-4.924-.993zM115 72.967a.395.395 0 0 0 .065.361l.013.017c-1.353-1.405-2.695-2.868-3.407-3.994a.385.385 0 0 0-.008-.146 3.182 3.182 0 0 0-.097-.282c-.133-.35-.334-.88-.109-1.26a.885.885 0 0 1 .271-.274c.259-.11.592-.226.982-.349.61-.124 1.503-.28 2.51-.447.997 1.525.196 5.077-.22 6.375zm7.871 31.553l1.73-10.428 5.066 1.021c.055 2.418.492 4.932 1.25 8.17l-8.046 1.237zm-85.73-15.176c.486-2.497.669-5.527.363-8.79l12.513 2.202-2.099 4.479a.462.462 0 0 0-.144-.06c-3.807-.8-6.056.678-7.546 1.656-.196.129-.383.252-.557.358l-2.53.155zm108.714 2.82l-6.957 5.433-4.476-6.304c.55-.755 1.253-1.521 2.156-2.305.803-.698 2.156-1.833 3.845-3.224l5.432 6.4zm6.357-4.965l-5.67 4.429-5.447-6.417a584.656 584.656 0 0 1 5.454-4.419l5.663 6.407zm9.84-7.684l-9.153 7.148-5.67-6.414c3.05-2.434 6.284-4.965 9.133-7.106l5.69 6.372z"/>
    </g>
</svg>
